<?xml version="1.0" standalone="no"?>
<!DOCTYPE svg PUBLIC "-//W3C//DTD SVG 20010904//EN"
 "http://www.w3.org/TR/2001/REC-SVG-20010904/DTD/svg10.dtd">
<svg version="1.0" xmlns="http://www.w3.org/2000/svg"
 width="450.000000pt" height="240.000000pt" viewBox="0 0 450.000000 240.000000"
 preserveAspectRatio="xMidYMid meet">
<metadata>
Created by potrace 1.15, written by Peter Selinger 2001-2017
</metadata>
<g transform="translate(0.000000,240.000000) scale(0.100000,-0.100000)"
fill="#000000" stroke="none">
<path d="M1041 2268 c-5 -13 -99 -270 -209 -573 -110 -302 -203 -558 -207
-568 -7 -16 2 -17 130 -15 l137 3 111 307 c62 169 113 306 114 305 1 -1 -11
-126 -27 -277 -16 -151 -30 -290 -30 -308 l0 -33 132 3 133 3 207 570 c114
314 210 578 214 588 5 16 -6 17 -129 17 l-135 0 -45 -122 c-24 -68 -68 -189
-98 -270 -29 -81 -54 -146 -56 -145 -3 3 21 366 31 480 l6 57 -135 0 c-131 0
-136 -1 -144 -22z"/>
<path d="M1592 1707 c-117 -320 -212 -586 -212 -590 0 -4 70 -6 156 -5 l156 3
214 585 c117 322 214 586 214 588 0 1 -71 2 -158 2 l-159 0 -211 -583z"/>
<path d="M2171 2268 c-5 -13 -99 -270 -209 -573 -110 -302 -203 -558 -207
-567 -7 -17 4 -18 147 -18 l155 0 83 230 c46 127 84 229 86 227 2 -2 -8 -93
-21 -202 -14 -110 -25 -212 -25 -227 l0 -28 229 -2 229 -3 -326 -88 c-180 -48
-545 -146 -812 -217 -525 -142 -597 -155 -722 -131 -307 60 -417 339 -272 690
50 122 52 133 14 91 -63 -71 -238 -308 -295 -400 -81 -131 -158 -289 -190
-390 -40 -124 -46 -290 -14 -375 47 -125 217 -248 380 -275 94 -16 248 -8 357
19 46 12 145 48 220 80 75 32 337 145 582 251 245 106 589 254 765 330 176 76
536 231 800 345 264 114 626 270 805 347 279 120 361 158 339 158 -2 0 -265
-70 -583 -155 -319 -85 -581 -153 -584 -151 -2 3 5 30 17 60 l21 56 -110 0
c-82 0 -110 3 -109 13 0 6 19 64 43 127 l43 115 99 3 99 3 38 107 c20 59 37
110 37 114 0 4 -42 9 -93 10 l-94 3 37 100 37 100 105 3 106 3 41 113 c22 62
41 116 41 120 0 3 -118 5 -261 4 l-262 -3 -203 -560 c-112 -308 -208 -569
-214 -580 -8 -15 -9 3 -5 65 2 47 10 190 16 319 l12 233 167 237 c91 130 175
248 184 264 l18 27 -151 0 -152 0 -125 -192 c-70 -106 -130 -197 -136 -203 -8
-9 21 75 101 294 17 47 31 88 31 93 0 4 -68 8 -150 8 -147 0 -151 -1 -159 -22z"/>
</g>
</svg>
